<svg width="20" height="20" viewBox="0 0 20 20" fill="none" xmlns="http://www.w3.org/2000/svg">
<g clip-path="url(#clip0)">
<path d="M12.0002 0H7.99968C4.13933 0 0.998779 3.14055 0.998779 7.0009V10.0013C0.998779 12.7115 2.56183 15.171 4.99929 16.3279V19.6692C4.99929 19.9593 5.36222 20.111 5.56839 19.9049L8.47109 17.0022H12.0002C15.8605 17.0022 19.0011 13.8616 19.0011 10.0013V7.0009C19.0011 3.14055 15.8605 0 12.0002 0Z" fill="#665CAC"/>
<path d="M5.9994 16.3279C3.56194 15.1709 1.9989 12.7114 1.9989 10.0013V7.00086C1.9989 3.14055 5.13948 0 8.99979 0H7.99968C4.13933 0 0.998779 3.14055 0.998779 7.0009V10.0013C0.998779 12.7115 2.56183 15.171 4.99929 16.3279V19.6692C4.99929 19.9593 5.36222 20.111 5.56839 19.9049L5.9994 19.4739V16.3279Z" fill="#523494"/>
<path d="M15.0332 12.4258L14.7335 10.8022C14.7087 10.668 14.6048 10.5625 14.471 10.5357L12.1137 10.0643C12.0042 10.0425 11.8914 10.0767 11.8125 10.1555L10.8548 11.1132C9.24125 10.3902 8.3457 9.4927 7.55773 7.80985L8.51234 6.85528C8.59113 6.77645 8.62535 6.6634 8.60351 6.55411L8.13207 4.19676C8.10531 4.06305 7.9998 3.95907 7.86566 3.9343L6.24199 3.63461C6.19754 3.62645 6.15175 3.62731 6.10761 3.63735C5.6789 3.73473 5.28773 3.95075 4.97636 4.26219C4.43722 4.80133 4.23117 5.58805 4.38054 6.53731C4.63129 8.13129 5.41222 10.3496 6.85304 11.7962L6.87273 11.8157C8.3182 13.2555 10.5365 14.0365 12.1306 14.2873C12.3314 14.319 12.5248 14.3346 12.7103 14.3346C13.4015 14.3346 13.9806 14.1166 14.4058 13.6915C14.7171 13.38 14.9332 12.9889 15.0306 12.5602C15.0405 12.5161 15.0414 12.4704 15.0332 12.4258Z" fill="white"/>
<path d="M8.18632 7.18125L8.51226 6.85527L8.51261 6.85492L8.18628 7.18121L8.18632 7.18125Z" fill="#E5E5E5"/>
<path d="M11.8125 10.1551L11.4834 10.4843L11.4835 10.4843L11.8126 10.1552L11.8125 10.1551Z" fill="#E5E5E5"/>
<path d="M13.3387 13.7059C13.1532 13.7059 12.9598 13.6902 12.759 13.6586C11.165 13.4078 8.94667 12.6268 7.50116 11.187L7.48147 11.1675C6.04065 9.72087 5.25971 7.50259 5.00897 5.90861C4.88831 5.14169 4.99987 4.48095 5.33147 3.97107C5.20448 4.0558 5.0853 4.15298 4.97612 4.26216C4.43698 4.8013 4.23093 5.58802 4.3803 6.53728C4.63104 8.13126 5.41198 10.3495 6.8528 11.7961L6.87249 11.8157C8.31796 13.2555 10.5363 14.0365 12.1303 14.2873C12.3312 14.3189 12.5246 14.3346 12.71 14.3346C13.4012 14.3346 13.9803 14.1166 14.4055 13.6914C14.5147 13.5822 14.6119 13.4631 14.6966 13.3361C14.3201 13.581 13.8615 13.7059 13.3387 13.7059Z" fill="#E5E5E5"/>
<path d="M10.6669 5.66739C10.4828 5.66739 10.3335 5.81665 10.3335 6.00075C10.3335 6.18485 10.4828 6.33411 10.6669 6.33411C11.4022 6.33411 12.0004 6.93231 12.0004 7.66762C12.0004 7.84926 12.1521 8.00098 12.3337 8.00098C12.5154 8.00098 12.6671 7.84926 12.6671 7.66762C12.6671 6.56465 11.7698 5.66739 10.6669 5.66739Z" fill="white"/>
<path d="M10.6668 4.33389C10.5435 4.33389 10.419 4.34073 10.2968 4.35421C10.1138 4.3744 9.98185 4.53913 10.002 4.72217C10.0222 4.90522 10.1873 5.03686 10.37 5.01698C10.468 5.00616 10.5678 5.00065 10.6668 5.00065C12.1374 5.00065 13.3338 6.19706 13.3338 7.66764C13.3338 7.76667 13.3283 7.86651 13.3175 7.96448C13.2975 8.14499 13.4317 8.31256 13.6123 8.33245C13.7928 8.35233 13.9603 8.21823 13.9802 8.03764C13.9937 7.91545 14.0006 7.791 14.0006 7.66764C14.0006 5.82944 12.505 4.33389 10.6668 4.33389Z" fill="white"/>
<path d="M10.6673 3.0004C10.5481 3.0004 10.4275 3.00493 10.3087 3.01395C10.1251 3.02786 9.98755 3.18801 10.0015 3.37157C10.0153 3.55516 10.176 3.69274 10.3591 3.67883C10.4611 3.67106 10.5649 3.66715 10.6673 3.66715C12.8732 3.66715 14.6678 5.46176 14.6678 7.66766C14.6678 7.97977 14.6318 8.29048 14.5608 8.5911C14.52 8.76337 14.6261 8.94243 14.7969 8.98923C14.9767 9.03844 15.1668 8.92575 15.2096 8.74446C15.2925 8.39364 15.3345 8.03137 15.3345 7.66766C15.3345 5.09411 13.2408 3.0004 10.6673 3.0004Z" fill="white"/>
</g>
<defs>
<clipPath id="clip0">
<rect width="20" height="20" fill="white"/>
</clipPath>
</defs>
</svg>
