<svg width="20" height="20" viewBox="0 0 20 20" fill="none" xmlns="http://www.w3.org/2000/svg">
<path d="M17.0711 2.92891C15.1823 1.04016 12.6711 0 10 0C7.32891 0 4.8177 1.04016 2.92891 2.92891C1.04012 4.81766 0 7.32891 0 10C0 12.0111 0.591953 13.9429 1.71383 15.5992L0.0269531 19.5354C-0.0255078 19.6578 0.00324219 19.8075 0.0971875 19.9018C0.194648 19.9997 0.351836 20.0271 0.476641 19.9676L4.24062 18.1752C5.93195 19.3698 7.91879 20 10 20C12.6711 20 15.1823 18.9598 17.0711 17.0711C18.9598 15.1823 20 12.6711 20 10C20 7.32891 18.9598 4.8177 17.0711 2.92891Z" fill="#20A83E"/>
<path d="M10.0001 18.3333C14.6024 18.3333 18.3334 14.6024 18.3334 10C18.3334 5.39764 14.6024 1.66669 10.0001 1.66669C5.3977 1.66669 1.66675 5.39764 1.66675 10C1.66675 14.6024 5.3977 18.3333 10.0001 18.3333Z" fill="#E5E5E5"/>
<path d="M10.0001 17.3334C14.0501 17.3334 17.3334 14.0501 17.3334 10C17.3334 5.94996 14.0501 2.66672 10.0001 2.66672C5.94999 2.66672 2.66675 5.94996 2.66675 10C2.66675 14.0501 5.94999 17.3334 10.0001 17.3334Z" fill="white"/>
<path d="M15.3278 13.3844L15.0281 11.7609C15.0033 11.6269 14.8994 11.5214 14.7657 11.4946L12.4087 11.0232C12.2992 11.0014 12.1864 11.0356 12.1076 11.1144L11.15 12.072C9.53662 11.3491 8.64115 10.4518 7.85326 8.76906L8.80776 7.81453C8.88658 7.73574 8.92076 7.62273 8.89893 7.51344L8.42752 5.1564C8.40076 5.02269 8.29526 4.91875 8.16115 4.89398L6.53768 4.59426C6.49322 4.58605 6.44744 4.58695 6.4033 4.59699C5.97463 4.69441 5.5835 4.91039 5.27221 5.22176C4.73311 5.76086 4.52709 6.54746 4.67643 7.49664C4.92713 9.09043 5.70803 11.3085 7.14865 12.7548L7.16826 12.7744C8.61362 14.214 10.8316 14.9949 12.4254 15.2457C12.6262 15.2773 12.8196 15.2929 13.005 15.2929C13.6962 15.2929 14.2752 15.0749 14.7003 14.6499C15.0117 14.3385 15.2277 13.9474 15.3251 13.5187C15.3351 13.4746 15.3361 13.4289 15.3278 13.3844Z" fill="#20A83E"/>
<path d="M13.6717 14.7042C13.4862 14.7042 13.2928 14.6885 13.0921 14.6569C11.4983 14.4062 9.28022 13.6253 7.8349 12.1857L7.81529 12.1661C6.37467 10.7198 5.59381 8.50171 5.34307 6.90792C5.21326 6.083 5.35229 5.38105 5.74475 4.85745C5.57334 4.95765 5.41436 5.07968 5.27221 5.22183C4.73311 5.76093 4.52709 6.54753 4.67643 7.49671C4.92713 9.0905 5.70803 11.3085 7.14865 12.7549L7.16826 12.7744C8.61362 14.2141 10.8316 14.995 12.4254 15.2457C12.6262 15.2773 12.8196 15.293 13.005 15.293C13.6962 15.293 14.2752 15.075 14.7003 14.65C14.7774 14.5728 14.8487 14.4908 14.9137 14.4045C14.5604 14.603 14.142 14.7042 13.6717 14.7042Z" fill="#189433"/>
</svg>
