<svg viewBox="0 0 20 20" fill="none" xmlns="http://www.w3.org/2000/svg"><g clip-path="url(#clip0)"><path d="M12 0H8C4.14 0 .999 3.14.999 7v3.001c0 2.71 1.563 5.17 4 6.327v3.341c0 .29.363.442.57.236l2.902-2.903h3.53c3.86 0 7-3.14 7-7V7c0-3.86-3.14-7.001-7-7.001z" fill="#665CAC"/><path d="M6 16.328A7.004 7.004 0 011.998 10V7c0-3.86 3.14-7.001 7-7.001H8C4.14 0 1 3.14 1 7v3.001c0 2.71 1.563 5.17 4 6.327v3.341c0 .29.363.442.57.236l.43-.431v-3.146z" fill="#523494"/><path d="M15.033 12.426l-.3-1.624a.334.334 0 00-.262-.266l-2.357-.472a.334.334 0 00-.302.091l-.957.958c-1.614-.723-2.51-1.62-3.297-3.303l.954-.955a.334.334 0 00.092-.3l-.472-2.358a.333.333 0 00-.266-.263l-1.624-.3a.334.334 0 00-.134.003c-.43.098-.82.314-1.132.625-.539.54-.745 1.326-.595 2.275.25 1.594 1.031 3.813 2.472 5.26l.02.019c1.445 1.44 3.663 2.22 5.258 2.471.2.032.394.048.58.048.69 0 1.27-.218 1.695-.644.311-.311.527-.702.625-1.13.01-.045.01-.09.002-.135z" fill="#fff"/><path d="M8.186 7.181l.326-.326-.326.326zm3.627 2.974l-.33.33.33-.33zm1.526 3.551c-.186 0-.38-.016-.58-.047-1.594-.251-3.812-1.032-5.258-2.472l-.02-.02C6.041 9.722 5.26 7.504 5.01 5.91c-.12-.767-.01-1.428.322-1.938a2.335 2.335 0 00-.355.291c-.539.54-.745 1.326-.596 2.275.251 1.594 1.032 3.813 2.473 5.26l.02.019c1.445 1.44 3.663 2.22 5.257 2.471.201.032.395.048.58.048.691 0 1.27-.218 1.695-.644.11-.109.207-.228.292-.355-.377.245-.835.37-1.358.37z" fill="#E5E5E5"/><path d="M10.667 5.667a.333.333 0 000 .667c.735 0 1.333.598 1.333 1.334 0 .181.152.333.334.333a.337.337 0 00.333-.333c0-1.103-.897-2-2-2z" fill="#fff"/><path d="M10.667 4.334c-.123 0-.248.007-.37.02a.333.333 0 00.073.663 2.67 2.67 0 012.948 2.947.336.336 0 00.294.368c.18.02.348-.114.368-.294a3.338 3.338 0 00-3.313-3.704z" fill="#fff"/><path d="M10.667 3c-.119 0-.24.005-.358.014a.333.333 0 10.05.665 4.005 4.005 0 014.202 4.912.336.336 0 00.236.398c.18.05.37-.063.413-.245A4.673 4.673 0 0010.668 3z" fill="#fff"/></g><defs><clipPath id="clip0"><path fill="#fff" d="M0 0h20v20H0z"/></clipPath></defs></svg>