<svg viewBox="0 0 20 20" fill="none" xmlns="http://www.w3.org/2000/svg"><path d="M17.071 2.929A9.935 9.935 0 0010 0a9.935 9.935 0 00-7.071 2.929A9.934 9.934 0 000 10c0 2.011.592 3.943 1.714 5.6L.027 19.534a.34.34 0 00.07.367.34.34 0 00.38.066l3.764-1.793A9.918 9.918 0 0010 20a9.935 9.935 0 007.071-2.929A9.935 9.935 0 0020 10a9.935 9.935 0 00-2.929-7.071z" fill="#20A83E"/><path d="M10 18.333a8.333 8.333 0 100-16.666 8.333 8.333 0 000 16.666z" fill="#E5E5E5"/><path d="M10 17.333a7.333 7.333 0 100-14.666 7.333 7.333 0 000 14.666z" fill="#fff"/><path d="M15.328 13.384l-.3-1.623a.334.334 0 00-.262-.266l-2.357-.472a.333.333 0 00-.301.091l-.958.958c-1.613-.723-2.509-1.62-3.297-3.303l.955-.954a.333.333 0 00.09-.302l-.47-2.357a.333.333 0 00-.267-.262l-1.623-.3a.333.333 0 00-.135.003c-.428.097-.82.313-1.13.625-.54.539-.746 1.325-.597 2.275.251 1.593 1.032 3.812 2.473 5.258l.02.02c1.445 1.439 3.663 2.22 5.256 2.47.201.032.395.048.58.048.691 0 1.27-.218 1.695-.643.312-.312.528-.703.625-1.131a.332.332 0 00.003-.135z" fill="#20A83E"/><path d="M13.672 14.704a3.73 3.73 0 01-.58-.047c-1.594-.25-3.812-1.032-5.257-2.471l-.02-.02c-1.44-1.446-2.221-3.664-2.472-5.258-.13-.825.01-1.527.402-2.05-.172.1-.33.222-.473.364-.539.539-.745 1.326-.596 2.275.251 1.594 1.032 3.812 2.473 5.258l.02.02c1.445 1.44 3.663 2.22 5.256 2.47.201.032.395.048.58.048.691 0 1.27-.218 1.695-.643a2.47 2.47 0 00.214-.245c-.354.198-.772.3-1.242.3z" fill="#189433"/></svg>